<?xml version="1.0" encoding="utf-8"?>
<!-- Copyright Codis Limited 2014  -->
<!DOCTYPE svg PUBLIC "-//W3C//DTD SVG 1.1//EN" "http://www.w3.org/Graphics/SVG/1.1/DTD/svg11.dtd">
<svg version="1.1" id="Layer_1" xmlns="http://www.w3.org/2000/svg" xmlns:xlink="http://www.w3.org/1999/xlink" x="0px" y="0px"
	 viewBox="0 0 573.72 592.04" preserveAspectRatio="xMinYMin meet" width="573.72" height="592.04" align="center">
<linearGradient id="SVGID_1_" gradientUnits="userSpaceOnUse" x1="-32.0306" y1="300.8556" x2="553.7335" y2="300.8556" gradientTransform="matrix(0.9288 0.3705 -0.3705 0.9288 155.6179 -79.8343)">
	<stop  offset="0.0816" style="stop-color:#0370BA"/>
	<stop  offset="0.3389" style="stop-color:#2492AE"/>
	<stop  offset="0.5905" style="stop-color:#3DABA5"/>
	<stop  offset="0.8179" style="stop-color:#4DBBA0"/>
	<stop  offset="1" style="stop-color:#52C09E"/>
</linearGradient>
<path fill="url(#SVGID_1_)" d="M315.18,579.29c-0.08-0.35-0.23-0.68-0.34-1.01l146.79-58.95c2.25,3.79,6.72,5.9,11.24,4.86
	c5.61-1.28,9.12-6.87,7.84-12.48c-0.6-2.63-2.17-4.76-4.21-6.19l82.56-131.53c1.99,0.9,4.27,1.21,6.56,0.68
	c5.61-1.28,9.12-6.87,7.84-12.48c-1.1-4.83-5.4-8.08-10.14-8.08l-10.73-158.16c5.51-1.36,8.94-6.87,7.67-12.42
	c-1.28-5.61-6.87-9.12-12.48-7.83c-1.86,0.43-3.45,1.35-4.75,2.57L443.72,59.42c1.77-2.36,2.56-5.44,1.85-8.54
	c-1.28-5.61-6.87-9.12-12.48-7.83c-3.68,0.84-6.42,3.55-7.53,6.88L277.11,12.59c0.31-1.44,0.34-2.96-0.01-4.49
	c-1.28-5.61-6.87-9.12-12.48-7.83c-5.61,1.28-9.12,6.87-7.84,12.48c0.08,0.37,0.23,0.7,0.35,1.05L116.72,70.19
	c-1.82-4.77-6.89-7.62-12.01-6.45c-5.61,1.28-9.12,6.87-7.84,12.48c0.4,1.76,1.27,3.28,2.38,4.55L14.27,216.16
	c-1.9-0.76-4.03-0.97-6.17-0.48c-5.61,1.28-9.12,6.87-7.84,12.48c0.97,4.25,4.42,7.28,8.46,7.95l10.73,158.02
	c-0.28,0.04-0.57,0.04-0.85,0.11c-5.61,1.28-9.12,6.87-7.84,12.48c1.28,5.61,6.87,9.12,12.48,7.84c1.77-0.41,3.3-1.28,4.57-2.41
	l100.94,120.8c-1.76,2.36-2.55,5.42-1.84,8.52c1.28,5.61,6.87,9.12,12.49,7.83c3.77-0.86,6.55-3.68,7.6-7.13l147.87,37.2
	c-0.33,1.46-0.37,3.01-0.02,4.57c1.28,5.61,6.87,9.12,12.48,7.84C312.95,590.49,316.46,584.9,315.18,579.29z M147.23,536.82
	c-0.05-0.2-0.13-0.37-0.18-0.55l20.65-7.04c1.62,4.01,5.92,6.38,10.27,5.39c3.46-0.79,5.96-3.5,6.7-6.74l32.81,8.72l24.3,6.46
	c-0.05,0.25-0.05,0.52-0.07,0.77l-94.23-4.66C147.49,538.39,147.41,537.61,147.23,536.82z M134.75,528.98
	c-0.75,0.17-1.45,0.45-2.13,0.77l-15.25-38.43c1.27-0.62,2.4-1.54,3.3-2.71l47.66,32.64c-1.17,1.92-1.63,4.27-1.08,6.64
	c0.03,0.14,0.1,0.27,0.14,0.41l-20.66,7.04C144.88,530.62,139.84,527.82,134.75,528.98z M31.08,402.07
	c-0.89-3.88-3.84-6.71-7.42-7.69l8.1-36.34c2.03,0.33,4.11-0.02,5.92-0.97l37.45,62.62l11.09,34.12c-1.45,0.45-2.73,1.23-3.73,2.26
	L29.68,410C31.14,407.73,31.73,404.91,31.08,402.07z M13.32,235.8c5.26-1.53,8.5-6.88,7.27-12.29c-0.5-2.21-1.7-4.06-3.28-5.44
	l21.67-22.15c0.38,0.33,0.76,0.66,1.2,0.93c1.37,0.86,2.89,1.28,4.4,1.37l-1.42,15.87c-0.18,0.7-0.25,1.44-0.19,2.18l-6.75,75.31
	c-0.52-0.01-1.03,0.01-1.56,0.13c-0.32,0.07-0.63,0.17-0.93,0.29L13.32,235.8z M117.4,73.3l25.64-3.24
	c0.24,1.35,0.77,2.64,1.58,3.78l-57.36,65.72c-1.11-2.04-2.95-3.55-5.12-4.24l21.68-51.52c1.73,0.57,3.63,0.7,5.54,0.26
	C114.39,82.91,117.7,78.29,117.4,73.3z M251.36,44.96l-10.18,23.36c-1.58-0.59-3.34-0.75-5.11-0.34c-3.69,0.84-6.3,3.86-6.84,7.38
	l-67.65-6.53c0.04-1.1-0.07-2.2-0.4-3.24L251.36,44.96z M275.9,15.63l26.23,13.62c-0.47,1.05-0.72,2.16-0.79,3.26l-48.3,11.05
	l10.21-23.43c1.86,0.71,3.93,0.93,6.02,0.45C272.19,19.91,274.51,18.05,275.9,15.63z M318.62,38.14c0.07-0.11,0.11-0.23,0.17-0.35
	l53.35,22.78l-65.19,9.63c-0.02-0.13-0.02-0.25-0.05-0.38c-0.32-1.38-1.02-2.55-1.98-3.46l-0.68-0.53
	c-0.57-0.42-1.19-0.74-1.86-0.96l6.26-22.58C312.41,43.11,316.45,41.59,318.62,38.14z M457.33,102.92l5.81,9.71
	c-2.49,1.46-4.11,4.03-4.37,6.9l-1.92,1.23l-2.15-16.97C455.6,103.64,456.49,103.35,457.33,102.92z M528.14,237.19
	c0.26,0.17,0.54,0.29,0.81,0.42l-7.56,17.37c-0.66-0.05-1.34-0.03-2.02,0.13c-1.26,0.29-2.33,0.93-3.2,1.77l-45.05-60.44v-0.94
	c2.22-2.11,3.32-5.27,2.59-8.46c-0.41-1.8-1.34-3.36-2.6-4.53l-0.03-53.96c0.42-0.18,0.81-0.4,1.19-0.63l55.86,93.4
	c-1.15,0.73-2.18,1.69-2.95,2.92C522.42,228.63,523.75,234.43,528.14,237.19z M538.37,323.69c0.77,3.35,3.34,5.79,6.44,6.62
	l-6.18,29.82c-0.42-0.03-0.84-0.03-1.27,0.07c-1.04,0.24-1.88,0.85-2.45,1.66l-10.6-9.45l6.08-67.95l12.85,29.18
	C539.55,315.39,537.42,319.53,538.37,323.69z M242.01,542.22l-25.67-6.82l-31.53-8.39c0.13-1.02,0.12-2.06-0.12-3.12
	c-0.94-4.11-4.57-6.88-8.6-6.93l-0.27-6.76l68.13,29.08C243.07,540.08,242.4,541.09,242.01,542.22z M121.27,487.83
	c0.15-0.25,0.25-0.51,0.38-0.76l53.3,22.76l0.28,7.18c-0.42,0.03-0.83,0.06-1.25,0.15c-2.11,0.48-3.84,1.7-5.07,3.3L121.27,487.83z
	 M109.06,474.54l-33.3-55.68L38.71,304.83c1.04-0.41,1.94-1.04,2.64-1.85l5.25,4.05l47.03,36.24c-1.03,1.53-1.46,3.45-1.02,5.38
	c0.72,3.16,3.51,5.29,6.61,5.34l11.82,119.82C110.37,473.98,109.7,474.22,109.06,474.54z M38.31,340.84
	c-1.68-1.06-3.56-1.5-5.4-1.42l3.05-34.11c0.58,0.02,1.17-0.01,1.76-0.14c0.06-0.01,0.11-0.04,0.17-0.06l35.88,110.4L38.53,356.6
	c1.07-0.72,2.02-1.65,2.75-2.81C44.03,349.39,42.71,343.6,38.31,340.84z M128.16,209.04L115.4,155.4c4.58-1.27,7.4-5.91,6.33-10.58
	c-0.12-0.52-0.3-1.01-0.5-1.48l66.39-18.79c0.03,0.22,0.03,0.43,0.08,0.65c0.37,1.6,1.29,2.93,2.5,3.87l-54.46,79.62
	c-1.47-0.87-3.25-1.21-5.05-0.8C129.75,208.1,128.9,208.5,128.16,209.04z M88.14,141.81c-0.1-0.45-0.27-0.87-0.43-1.28l57.56-65.94
	c0.58,0.66,1.24,1.28,2.02,1.77c4.39,2.76,10.19,1.43,12.95-2.96c0.06-0.11,0.1-0.22,0.16-0.33l29.89,45.1
	c-1.71,1.29-2.74,3.33-2.73,5.52l-66.62,19.01c-1.83-3.53-5.85-5.54-9.91-4.61c-3.47,0.79-5.98,3.52-6.71,6.77l-15.99-0.73
	C88.35,143.36,88.32,142.59,88.14,141.81z M305.67,41.1c0.65,0.41,1.33,0.7,2.02,0.93l-6.26,22.58c-0.29-0.06-0.58-0.1-0.88-0.11
	l-0.87,0c-0.34,0.03-0.69,0.05-1.04,0.13c-0.89,0.2-1.69,0.58-2.4,1.07l-0.67,0.56c-1.53,1.38-2.4,3.39-2.28,5.51l-46.4,3.73
	c-0.04-0.26-0.04-0.53-0.1-0.79c-0.18-0.78-0.48-1.49-0.84-2.16l56.93-34.16C303.6,39.44,304.52,40.38,305.67,41.1z M305.9,75.17
	l35.88,22.49c-0.76,1.41-1.06,3.08-0.69,4.77l-93.48,26.91c-0.22-0.5-0.54-0.95-0.93-1.32l48.86-51.57
	c1.62,1.46,3.89,2.14,6.17,1.62C303.51,77.67,304.96,76.59,305.9,75.17z M399.95,65.96l-0.72,5.11l-13.31-5.68l1.63-1.54l2.93-2.78
	C392.18,64.56,396.01,66.6,399.95,65.96z M399.1,72.07l-12.24,87.48c-0.68-0.05-1.38-0.05-2.08,0.12c-0.55,0.13-1.06,0.34-1.55,0.58
	l-4.84-8.23l-26.7-45.37c2.29-1.56,3.53-4.39,2.87-7.25c-0.25-1.1-0.78-2.06-1.45-2.86l32.05-30.42L399.1,72.07z M448.04,102.55
	c1.77,1.11,3.76,1.54,5.68,1.38l2.21,17.41l-35.72,22.85l-28.33,18.13c-1.01-1.37-2.5-2.32-4.17-2.67l12.21-87.23l44.3,18.91
	C442.71,95.42,444.2,100.15,448.04,102.55z M500.7,332.51l22.61,20.16l-2.22,24.83c-2.91,0.19-5.69,1.7-7.35,4.36
	c-0.71,1.12-1.12,2.34-1.3,3.57l-63.89-6.88c0.16-0.88,0.15-1.8-0.07-2.73c-0.21-0.91-0.58-1.73-1.09-2.44l30.92-28.2l12.6-11.49
	c1.59,1.28,3.72,1.87,5.87,1.38C498.41,334.69,499.75,333.75,500.7,332.51z M511.16,423.79l10.36-27.6
	c0.69,0.01,1.37-0.04,2.04-0.18L511.16,423.79z M460.32,515.86l-115.81,26.49c-0.08-0.28-0.17-0.55-0.27-0.81l59.59-24.83
	c1.38,2.81,4.53,4.41,7.72,3.68c0.45-0.1,0.89-0.26,1.3-0.44l0.99-1.78c3.87,1.03,8.12-0.47,10.37-4.04
	c0.68-1.08,1.08-2.26,1.28-3.44l34.69,2.95C460.14,514.37,460.19,515.11,460.32,515.86z M339.25,536.5l1.42-8.7l62.45-14.28
	c-0.02,0.55,0.02,1.11,0.15,1.68c0.06,0.25,0.15,0.46,0.23,0.7l-59.62,24.84C342.89,538.79,341.23,537.29,339.25,536.5z
	 M94.17,342.58l-43.48-33.5l-8.81-6.79c0.71-1.04,1.11-2.27,1.17-3.56l102.42-2.25l9.6-0.21c0.03,0.31,0.05,0.63,0.12,0.95
	c0.21,0.93,0.6,1.77,1.13,2.5l-51.95,42.71c-1.62-1.73-4.08-2.6-6.56-2.04C96.34,340.72,95.1,341.52,94.17,342.58z M235.99,218.73
	l-29.36-39.63c1.91-1.61,2.89-4.18,2.29-6.79c-0.28-1.21-0.88-2.25-1.67-3.11l33.73-35.19c0.46,0.44,1.03,0.75,1.65,0.94
	l-2.99,82.98c-0.64-0.04-1.28-0.02-1.93,0.13C237.09,218.2,236.53,218.44,235.99,218.73z M201.16,125.11l20.35,3.09l18.2,2.76
	c0,0.32,0.02,0.65,0.09,0.98c0.12,0.52,0.34,0.98,0.62,1.4l-31.87,33.25l-1.92,2.01c-1.38-1.16-3.17-1.76-5.05-1.59l-5.66-36.63
	c0.02,0,0.04,0,0.06-0.01C198.67,129.76,200.61,127.64,201.16,125.11z M236.44,85.5l1.86,15.82l-37.92,18.89
	c-0.29-0.49-0.64-0.93-1.03-1.33l31.94-36.4C232.61,84.03,234.42,85.12,236.44,85.5z M201.17,122.12c-0.09-0.4-0.23-0.77-0.38-1.14
	l37.63-18.74l2.99,25.45c-0.8,0.59-1.36,1.45-1.58,2.42l-38.54-5.85C201.34,123.55,201.33,122.84,201.17,122.12z M350.94,107.08
	l26.96,45.83l4.58,7.78c-2.3,1.54-3.55,4.38-2.9,7.24c0.08,0.37,0.22,0.7,0.35,1.03l-52.08,24.82l-20.42,9.73
	c-0.67-1.2-1.66-2.15-2.86-2.76l40.89-93.33c1.21,0.44,2.55,0.56,3.9,0.25C349.93,107.54,350.44,107.33,350.94,107.08z
	 M465.02,238.05c0.67,2.95,3.43,4.87,6.36,4.6l11.93,56.63c-0.45,0.12-0.87,0.29-1.27,0.49l-24.19-41.05l-9.46-16.04
	c2.12-0.9,3.62-2.78,4.07-4.98l12.53,0.11C465,237.89,465,237.97,465.02,238.05z M447.24,243.07c0.11-0.02,0.2-0.07,0.31-0.1
	l33.74,57.24c-0.87,0.59-1.58,1.36-2.09,2.25l-1.43-0.72l-103.17-51.4c0.29-1.06,0.35-2.18,0.09-3.32
	c-0.01-0.04-0.03-0.08-0.04-0.12l55.31-7.31l9.18-1.21C440.19,241.79,443.69,243.88,447.24,243.07z M516.08,394.33l-25.28,28.96
	l-43.71-41.62c0.54-0.67,0.96-1.44,1.22-2.28l64.05,6.88C512.19,389.33,513.5,392.39,516.08,394.33z M502.41,434.34l-10.9-10.38
	l25.37-29.07c1.14,0.68,2.37,1.08,3.62,1.24l-13.93,37.17c-0.68-0.16-1.41-0.19-2.13-0.03
	C503.65,433.47,502.97,433.85,502.41,434.34z M461.65,476.49l-6.69-10.66l8.54-9.78l4.72,16.91c-0.52,0.02-1.04,0.08-1.56,0.2
	C464.55,473.64,462.83,474.87,461.65,476.49z M454.42,464.97l-12.75-20.33c0.75,0.02,1.51-0.02,2.28-0.19
	c4.82-1.1,7.83-5.9,6.73-10.72c-1.1-4.82-5.9-7.83-10.72-6.73c-2.85,0.65-5.04,2.62-6.15,5.1l-13.73-21.89
	c2.19-1.57,3.34-4.35,2.7-7.14c-0.28-1.21-0.87-2.24-1.66-3.09l16.25-16.84l0.28-0.29c1.56,1.16,3.59,1.68,5.65,1.22
	c0.05-0.01,0.08-0.03,0.13-0.04l19.78,70.89L454.42,464.97z M404.8,509.16l-49.07-37.36c1.02-1.52,1.44-3.43,1-5.35
	c-0.26-1.11-0.79-2.08-1.48-2.9l56.12-53.85c1.06,0.97,2.4,1.57,3.85,1.74l-5.01,90.55c-0.72,0.61-1.39,1.31-1.92,2.15
	c-0.66,1.05-1.04,2.18-1.25,3.32C406.18,507.88,405.41,508.45,404.8,509.16z M257.96,536.77c-1.19,0.54-2.26,1.35-3.16,2.38
	l-1.05,0.79c-0.99-1.15-2.33-1.97-3.83-2.27L266.87,417c0.67,0.05,1.37,0.04,2.06-0.12c1.59-0.36,2.89-1.26,3.83-2.44l71.36,49.96
	c-0.91,1.48-1.26,3.3-0.84,5.13c0.19,0.83,0.54,1.58,0.98,2.25l-81.59,61.45L257.96,536.77z M341.96,354.07l-50.81-20.44
	c0.25-1.01,0.3-2.09,0.05-3.17c-0.23-1.01-0.69-1.91-1.29-2.68l13.72-14.08l59.13-60.65c0.83,0.96,1.9,1.66,3.11,2.05l-16.73,93.94
	l-0.21,1.17c-0.75-0.09-1.53-0.08-2.31,0.1C344.49,350.8,342.85,352.24,341.96,354.07z M289.34,327.12
	c-0.76-0.75-1.68-1.31-2.69-1.65l2.25-17.55l12.09-94.23c0.65,0.04,1.31,0.02,1.98-0.13c1.73-0.4,3.14-1.43,4.08-2.77l55.28,33.81
	c-1.08,1.54-1.55,3.51-1.1,5.48c0.19,0.84,0.55,1.59,0.99,2.27L289.34,327.12z M300.12,213.61l-5.89,45.97l-8.42,65.66
	c-0.87-0.17-1.78-0.17-2.71,0.02l-40.24-94.63c2.43-1.49,3.77-4.38,3.13-7.31l48.98-14.15C295.8,211.5,297.78,213.16,300.12,213.61z
	 M240.79,231.5c0.46-0.11,0.89-0.26,1.3-0.44l40.17,94.44c-1.87,0.64-3.31,2-4.07,3.72l-88.42-25.86l-21.14-6.18
	c0.22-0.98,0.26-2.01,0.02-3.05c-0.24-1.05-0.73-1.98-1.37-2.76l22.72-20.72l44.67-40.72C236.29,231.35,238.53,232.02,240.79,231.5z
	 M189.62,304.23l88.27,25.81c-0.33,1.1-0.42,2.29-0.14,3.5c0.64,2.81,2.91,4.82,5.6,5.26l-11.4,49.59l-3.44,14.97
	c-0.86-0.14-1.75-0.13-2.65,0.08c-1.06,0.24-2,0.74-2.79,1.38l-47.77-51.84l-48.4-52.54c0.66-0.69,1.17-1.52,1.5-2.42L189.62,304.23
	z M272.76,388.76l11.46-49.9c0.59,0.02,1.19-0.01,1.79-0.14c2.33-0.53,4.1-2.18,4.9-4.25l50.72,20.41c-0.39,1.15-0.49,2.42-0.2,3.7
	c0.11,0.49,0.27,0.94,0.48,1.38l-69.39,45.64c-0.85-0.96-1.94-1.65-3.17-2.01L272.76,388.76z M342.66,361.17
	c1.2,1.59,3.05,2.58,5.06,2.71l1.61,97.27c-0.29,0.03-0.57,0.04-0.86,0.1c-1.44,0.33-2.66,1.1-3.58,2.12l-71.42-50
	c0.75-1.41,1.05-3.08,0.66-4.76c-0.15-0.68-0.43-1.29-0.76-1.87L342.66,361.17z M353.53,361.32l56.63,39.71
	c-0.91,1.48-1.27,3.3-0.85,5.13c0.25,1.11,0.79,2.08,1.48,2.9l-56.13,53.85c-1.18-1.08-2.71-1.71-4.35-1.79l-1.6-97.25
	c0.33-0.03,0.66-0.05,0.99-0.12C351.28,363.39,352.59,362.49,353.53,361.32z M421.24,501.17c-3.2-2.01-7.14-1.83-10.12,0.11
	l1.34-24.14l3.63-65.63c0.5-0.01,0.99-0.06,1.49-0.17c0.63-0.14,1.2-0.39,1.73-0.68l14.11,22.48c-0.44,1.45-0.56,3.01-0.2,4.59
	c0.84,3.68,3.84,6.29,7.36,6.83l13.24,21.09l-31.65,36.25C421.87,501.66,421.58,501.39,421.24,501.17z M444.24,383.75
	c0.87-0.33,1.63-0.82,2.27-1.44l43.72,41.63l-26.36,30.19L444.24,383.75z M436.96,382.31l-16.47,17.06
	c-1.6-1.35-3.79-1.98-5.99-1.48c-1.58,0.36-2.89,1.25-3.83,2.43l-31.57-22.13l-25.06-17.57c0.32-0.53,0.55-1.1,0.72-1.7l80.15,17.58
	c-0.1,0.78-0.09,1.58,0.1,2.39C435.33,380.25,436.03,381.41,436.96,382.31z M354.97,358.08c0.13-0.84,0.12-1.71-0.08-2.59
	c-0.6-2.63-2.64-4.54-5.1-5.13l0.26-1.42l16.67-93.6c0.9,0.16,1.84,0.16,2.78-0.06c0.65-0.15,1.24-0.41,1.79-0.72l15.69,27.47
	l51.12,89.5c-1.5,0.94-2.57,2.42-3.01,4.12L354.97,358.08z M440.21,370.63c-0.48,0.11-0.93,0.27-1.36,0.47l-62.24-108.98l-4.57-8.01
	c1.03-0.75,1.81-1.78,2.29-2.94l28.8,14.35l75.67,37.7c-0.55,1.29-0.72,2.74-0.39,4.21c0.4,1.75,1.45,3.17,2.82,4.12l-35.95,59.88
	C443.81,370.57,442.02,370.22,440.21,370.63z M428.92,238.84l-54.56,7.21c-0.85-2.19-2.73-3.74-4.95-4.22l15.8-68.63
	c0.85,0.13,1.74,0.12,2.63-0.08c0.94-0.21,1.79-0.61,2.52-1.15l49.73,60.38c-1.04,1.46-1.5,3.29-1.17,5.17L428.92,238.84z
	 M368.55,241.72c-0.69-0.06-1.41-0.05-2.12,0.12c-1.43,0.33-2.65,1.07-3.56,2.08l-28.68-17.54l-26.68-16.32
	c0.75-1.41,1.04-3.07,0.66-4.75c-0.08-0.36-0.21-0.69-0.34-1.02l72.5-34.55c0.88,1.59,2.35,2.74,4.06,3.24L368.55,241.72z
	 M303.79,200.38c-1.21-0.44-2.55-0.56-3.9-0.25c-0.85,0.19-1.62,0.56-2.3,1.02l-51.31-66.8c1.27-0.93,1.93-2.55,1.59-4.18
	l93.49-26.91c0.6,1.69,1.81,3.01,3.32,3.79L303.79,200.38z M246.22,222.35l-0.5,0.14c-0.83-2.36-2.84-4.04-5.21-4.48l1.81-50.04
	l1.18-32.86c0.41,0.03,0.83,0.03,1.26-0.07c0.27-0.06,0.53-0.15,0.77-0.26l26.09,33.96l25.29,32.93c-1.84,1.61-2.78,4.11-2.21,6.66
	 M232.52,226.32c0.26,1.16,0.83,2.16,1.56,2.99l-45.1,41.12l-22.27,20.3c-1.62-1.56-3.96-2.3-6.33-1.76
	c-0.14,0.03-0.27,0.1-0.41,0.14L135,220.91c2.17-0.95,3.67-2.95,4.04-5.24l44.9,4.19l48.46,4.52
	C232.35,225.02,232.37,225.67,232.52,226.32z M133.77,221.32c0.15-0.03,0.27-0.1,0.41-0.13l24.97,68.18
	c-2.42,1.06-3.99,3.42-4.09,6.02l-35.36,0.78l-76.66,1.69c-0.03-0.32-0.05-0.64-0.12-0.95c-0.23-1-0.67-1.89-1.27-2.65L86.62,255
	l40.72-35.55C128.96,221.08,131.35,221.88,133.77,221.32z M156.89,300.37c1.31,1.4,3.15,2.24,5.12,2.2l9.15,117.62
	c-0.2,0.03-0.39,0.03-0.58,0.08c-1.05,0.24-1.97,0.73-2.76,1.36L104.3,351.9c1.57-1.62,2.32-3.97,1.78-6.33
	c-0.21-0.93-0.6-1.77-1.13-2.5L156.89,300.37z M172.03,420.1l-4-51.41l-5.15-66.22c0.19-0.02,0.38-0.02,0.57-0.07
	c1.07-0.24,1.99-0.74,2.79-1.39l96.17,104.38c-1.38,1.44-2.08,3.45-1.84,5.53l-23.13,4.09l-58.61,10.36
	C178.06,422.19,175.19,420.05,172.03,420.1z M237.78,415.83l22.91-4.05c0.65,2.67,2.78,4.59,5.32,5.12l-16.95,120.66
	c-0.68-0.05-1.37-0.04-2.06,0.12c-0.67,0.15-1.27,0.43-1.83,0.74l-68.92-105.91c1.92-1.43,2.98-3.81,2.71-6.29L237.78,415.83z
	 M171.97,433.86l2.94,74.88l-52.83-22.55c1.19-3.18,0.54-6.74-1.61-9.31l48-44.05C169.5,433.48,170.71,433.83,171.97,433.86z
	 M174.5,476.5l-1.67-42.68c0.28-0.03,0.56-0.05,0.84-0.11c0.67-0.15,1.26-0.43,1.83-0.74l68.51,105.27l-68.22-29.12L174.5,476.5z
	 M266.84,537.36c-2.02-1.27-4.34-1.64-6.52-1.28l12.51-9.42l71.96-54.2c0.96,1.11,2.24,1.9,3.68,2.23l-2.37,14.51l-2.19,13.4
	c-4.39,1.39-7.08,5.91-6.03,10.49c0.5,2.19,1.79,3.98,3.47,5.2l-1.42,8.67l-69.07,15.8C270.24,540.6,268.89,538.64,266.84,537.36z
	 M342.14,518.82c1.89,1.09,4.16,1.52,6.45,0.99c4.82-1.1,7.83-5.9,6.73-10.72c-1.09-4.74-5.75-7.71-10.49-6.76l3-18.4l1.49-9.12
	c0.73,0.08,1.47,0.06,2.22-0.11c1.49-0.34,2.73-1.15,3.66-2.22l24.39,18.56l24.69,18.79c-0.53,0.79-0.88,1.7-1.05,2.65l-62.38,14.26
	L342.14,518.82z M422.91,502.55l31.45-36.03l6.76,10.77c-1.05,1.82-1.46,4.01-0.95,6.21c0.15,0.65,0.38,1.25,0.65,1.82l-36.03,19.99
	C424.34,504.3,423.72,503.36,422.91,502.55z M469.13,473l-4.94-17.73l26.75-30.65l10.87,10.35c-0.85,1.08-1.24,2.51-0.91,3.95
	c0.2,0.88,0.65,1.64,1.24,2.24l-28.38,33.55C472.43,473.71,470.83,473.1,469.13,473z M527.55,379.57l8.45-11.42l-6.24,13.99
	C529.2,381.17,528.46,380.3,527.55,379.57z M534.48,362.64c-0.33,0.77-0.43,1.65-0.23,2.52c0.19,0.83,0.62,1.55,1.2,2.1l-8.67,11.72
	c-0.04-0.02-0.06-0.05-0.1-0.08c-1.44-0.91-3.03-1.33-4.61-1.39l2.15-24.02L534.48,362.64z M471.97,349.78l-25.15,22.93
	c-0.26-0.28-0.53-0.53-0.82-0.76l4.26-7.1L481.99,312c1.4,0.72,3.03,1,4.69,0.63c0.42-0.1,0.81-0.24,1.19-0.41l0.53,1.04
	c-2.03,2.1-2.99,5.15-2.29,8.21c0.42,1.82,1.37,3.39,2.65,4.57c-0.43,1.19-0.55,2.51-0.25,3.85c0.29,1.26,0.92,2.34,1.75,3.21
	L471.97,349.78z M492.83,310.75c-1.44,0.33-2.7,1.03-3.76,1.92l-0.43-0.85c2.52-1.49,3.92-4.46,3.24-7.45
	c-0.32-1.42-1.06-2.62-2.05-3.53l12-14.8l15.1-18.6c0.38,0.26,0.77,0.5,1.19,0.69l-16.75,45.3
	C499.26,311.15,496.07,310.02,492.83,310.75z M489.13,300.3c-1.41-1-3.16-1.45-4.97-1.19l-10.81-51.33l-1.1-5.25
	c1.41-0.33,2.57-1.16,3.38-2.24l38.91,18.93c-0.53,1.27-0.69,2.71-0.36,4.16c0.32,1.41,1.06,2.62,2.05,3.53L489.13,300.3z
	 M514.93,258.44l-38.83-18.88c0.67-1.24,0.94-2.7,0.6-4.19c-0.61-2.67-2.93-4.49-5.54-4.62l-0.02-32.65l44.37,59.53
	C515.3,257.89,515.09,258.16,514.93,258.44z M470.29,230.77c-0.26,0.02-0.51,0.04-0.77,0.1c-2.86,0.65-4.75,3.25-4.64,6.08
	l-12.33-0.1c0.05-0.68,0.03-1.35-0.12-2.04c-0.65-2.86-3-4.87-5.73-5.27l2.99-14.35l11.28-54.12l2.44,19.21
	c-0.13,0.02-0.26,0.02-0.39,0.05c-4.82,1.1-7.83,5.9-6.72,10.72c1.1,4.82,5.9,7.83,10.72,6.73c1.09-0.25,2.06-0.71,2.94-1.29
	l0.34,0.45L470.29,230.77z M464.37,180.15l-2.79-22.04l6.01-28.87c0.68,0,1.36-0.05,2.05-0.2c0.2-0.05,0.38-0.14,0.58-0.2
	l0.03,53.01C468.59,180.63,466.52,180,464.37,180.15z M466.71,129.18l-5.47,26.29l-4.28-33.74l1.74-1.12
	c0.02,0.57,0.08,1.13,0.21,1.7C459.79,126.14,463.01,128.79,466.71,129.18z M438.21,133.72l17.84-11.41l4.57,36.11l-14.8,71.05
	c-0.55-0.01-1.1,0.02-1.66,0.15c-1.4,0.32-2.61,1.05-3.52,2.03l-49.62-60.25c1.72-1.62,2.58-4.06,2.02-6.54
	c-0.15-0.64-0.4-1.23-0.71-1.78 M245.99,127.49c-0.89-0.54-1.98-0.76-3.08-0.51c-0.21,0.05-0.4,0.13-0.59,0.2l-2.98-25.42
	l39.01-19.43l15.71-7.83c0.25,0.48,0.55,0.91,0.89,1.31L245.99,127.49z M279.21,80.95l-39.97,19.91l-1.79-15.27
	c0.86,0.06,1.74,0.04,2.62-0.16c4.23-0.97,7.06-4.78,6.95-8.95l46.41-3.73c0.01,0.05,0.01,0.1,0.02,0.15
	c0.07,0.29,0.18,0.55,0.27,0.82L279.21,80.95z M229.34,78.69c0.25,1.11,0.72,2.1,1.32,2.99l-32.04,36.53
	c-0.79-0.61-1.7-1.06-2.7-1.28l-0.86-0.12c-0.71-0.06-1.43-0.05-2.16,0.11c-0.69,0.16-1.31,0.44-1.89,0.77l-30.19-45.54
	c0.34-0.77,0.58-1.56,0.7-2.36l67.64,6.54C229.13,77.11,229.16,77.9,229.34,78.69z M190.92,129.57c1.22,0.72,2.66,1.06,4.14,0.92
	l5.67,36.63c-0.02,0.01-0.04,0.01-0.06,0.01c-3.72,0.85-6.04,4.55-5.19,8.26c0.13,0.55,0.33,1.06,0.58,1.55l-21.37,12.45
	l-36.73,21.39c-0.41-0.61-0.92-1.13-1.49-1.58L190.92,129.57z M167.84,194.37l28.64-16.69c1.55,2.31,4.39,3.55,7.26,2.89
	c0.81-0.19,1.54-0.53,2.2-0.95l11.64,15.71l17.66,23.83c-1.45,1.04-2.45,2.6-2.78,4.35l-47.99-4.47l-45.37-4.24
	c0.02-0.58-0.01-1.15-0.15-1.74c-0.13-0.55-0.33-1.06-0.57-1.54L167.84,194.37z M125.38,215.19c0.02,0.31,0.04,0.64,0.12,0.95
	c0.23,1,0.68,1.89,1.26,2.65l-40.94,35.74L41.07,293.6c-0.94-0.95-2.14-1.6-3.45-1.88l10.34-69.34c1.08,0.31,2.24,0.38,3.42,0.11
	c2.88-0.66,4.9-3.03,5.28-5.79L125.38,215.19z M47.12,222.09l-9.29,62.33l5.87-65.51C44.45,220.36,45.67,221.47,47.12,222.09z
	 M100.1,353.93c0.26-0.03,0.51-0.04,0.78-0.1c1.05-0.24,1.97-0.73,2.76-1.36l63.53,69.72c-1.57,1.62-2.32,3.97-1.78,6.33
	c0.36,1.56,1.23,2.85,2.38,3.78l-47.89,43.94c-0.49-0.48-1.01-0.93-1.61-1.31c-1.99-1.25-4.26-1.63-6.41-1.29L100.1,353.93z
	 M271.07,543.72l68.69-15.71l-1.35,8.23c-1.41-0.41-2.93-0.51-4.46-0.16c-3.69,0.84-6.3,3.85-6.83,7.38l-56.04,0.36
	C271.07,543.79,271.07,543.75,271.07,543.72z M460.24,512.65l-34.63-2.94c0.07-1.18-0.1-2.36-0.47-3.48l36.17-20.07
	c1.9,3.01,5.53,4.66,9.2,3.82c4.65-1.06,7.55-5.69,6.49-10.34c-0.4-1.73-1.29-3.22-2.5-4.36l28.38-33.51
	c0.05,0.03,0.1,0.07,0.15,0.1l-28.63,62.52c-1.9-0.77-4.03-1.04-6.19-0.55C463.86,504.86,460.8,508.47,460.24,512.65z
	 M507.78,433.78l17.02-38.12c1.93-0.67,3.67-1.94,4.85-3.82c1.69-2.69,1.83-5.88,0.7-8.6l6.72-15.06c0.68,0.21,1.41,0.26,2.15,0.09
	c1.81-0.41,3.05-1.95,3.19-3.71l10.52-0.42c-0.03,0.88,0.01,1.78,0.22,2.68c0.53,2.31,1.81,4.24,3.5,5.64l-47.42,62.56
	C508.83,434.51,508.33,434.09,507.78,433.78z M552.99,363.16l-10.64,0.43c-0.01-0.09-0.01-0.19-0.03-0.28
	c-0.26-1.14-0.98-2.06-1.92-2.62l0.16-0.36l-0.24,0.32c-0.23-0.13-0.48-0.25-0.73-0.33l6.17-29.79c1.08,0.17,2.2,0.15,3.32-0.11
	c0.75-0.17,1.44-0.46,2.1-0.8l8.37,25.2C555.96,356.21,553.48,359.44,552.99,363.16z M523.41,351.6l-22.22-19.81
	c0.85-1.46,1.18-3.22,0.77-4.99c-0.11-0.48-0.28-0.94-0.48-1.38c1.86-2.09,2.74-5.01,2.07-7.95c-0.28-1.24-0.82-2.36-1.53-3.32
	l16.92-45.75c1.11,0.33,2.3,0.42,3.51,0.14c0.29-0.07,0.56-0.18,0.83-0.28l6.31,14.33L523.41,351.6z M524.07,267.94
	c2.73-1.41,4.28-4.51,3.56-7.64c-0.61-2.68-2.72-4.62-5.24-5.18l7.44-17.12c1.2,0.45,2.45,0.66,3.68,0.61l-3.78,42.2L524.07,267.94z
	 M445.03,89.7c-0.14,0.25-0.25,0.5-0.38,0.76l-44.59-19.04l0.79-5.65c1.95-0.53,3.57-1.67,4.72-3.17L445.03,89.7z M389.8,59.16
	c0.08,0.36,0.22,0.68,0.35,1.03l-2.93,2.78l-2.16,2.05l-9.34-3.99l14.06-2.08C389.79,59.02,389.79,59.09,389.8,59.16z M384.28,65.75
	l-31.76,30.14c-0.87-0.8-1.94-1.35-3.1-1.62l-0.85-0.14c-0.75-0.09-1.51-0.08-2.28,0.1c-1.71,0.39-3.1,1.4-4.04,2.72l-35.92-22.52
	c0.49-1,0.76-2.1,0.73-3.25l66.81-9.87L384.28,65.75z M301.29,33.54c0.06,1.4,0.44,2.77,1.1,4l-56.92,34.15
	c-0.86-1.28-2.04-2.27-3.39-2.95l10.48-24.06L301.29,33.54z M88.25,145.11l15.91,0.73c-0.11,0.97-0.1,1.96,0.13,2.97
	c1.08,4.73,5.72,7.69,10.45,6.76l12.77,54.05c-1.29,1.21-2.07,2.9-2.15,4.71l-68.64,1.51c0.01-0.53-0.03-1.06-0.15-1.6
	c-0.7-3.06-3.35-5.14-6.33-5.32l-0.89,0c-0.35,0.02-0.69,0.05-1.04,0.13c-0.61,0.14-1.17,0.39-1.71,0.67l-0.77,0.45
	c-0.56,0.4-1.05,0.89-1.47,1.43l1.19-13.32c2.99-0.13,5.86-1.66,7.57-4.38c2.44-3.9,1.66-8.89-1.61-11.9l25.78-29.53
	c1.31,0.32,2.7,0.39,4.11,0.07C85.11,151.68,87.72,148.65,88.25,145.11z M34.99,305.24l-3.07,34.31c-0.59,0.09-1.17,0.25-1.73,0.45
	l4.74-34.78C34.94,305.22,34.97,305.23,34.99,305.24z M28.32,356.75c0.79,0.5,1.62,0.85,2.48,1.09l-7.83,35.1l4.97-36.48
	C28.07,356.54,28.18,356.66,28.32,356.75z M97.6,460.32c-1.09-4.77-5.8-7.75-10.56-6.76l-9.92-30.53l31.09,51.98
	c-0.72,0.46-1.38,1.03-1.96,1.69l-10.32-8.94C97.5,465.72,98.22,463.03,97.6,460.32z M269.8,550.3c1.1-1.74,1.49-3.7,1.35-5.61
	l55.89-0.36c-0.04,0.81-0.02,1.63,0.17,2.47c0.41,1.8,1.34,3.35,2.6,4.53l-18.49,22.01c-2.37-1.81-5.5-2.61-8.63-1.89
	c-2.48,0.57-4.51,1.99-5.92,3.87l-28.08-23.6C269.1,551.29,269.47,550.82,269.8,550.3z M314.52,577.35
	c-0.59-1.3-1.44-2.42-2.46-3.36l18.53-22.06c2.03,1.52,4.67,2.21,7.34,1.6c3.59-0.82,6.17-3.7,6.8-7.1l1.12,0.34
	c0.11-0.02,0.23-0.05,0.34-0.07c0.45-0.1,0.89-0.22,1.34-0.32l-2.73-0.82c0.06-0.74,0.04-1.49-0.09-2.25l115.79-26.48
	c0.16,0.57,0.36,1.12,0.61,1.65L314.52,577.35z M558.18,373.54l-82.51,131.45c-0.12-0.07-0.25-0.11-0.37-0.17l28.63-62.52
	c0.81,0.29,1.71,0.37,2.61,0.16c2.53-0.58,4.12-3.1,3.54-5.64c-0.07-0.32-0.18-0.62-0.3-0.9l47.65-62.86
	C557.67,373.23,557.92,373.39,558.18,373.54z M562.33,354.18c-0.45,0.04-0.9,0.07-1.36,0.17c-0.17,0.04-0.32,0.11-0.48,0.16
	l-8.43-25.39c3-2,4.62-5.69,3.77-9.41c-1.1-4.82-5.9-7.83-10.72-6.73c-0.36,0.08-0.69,0.23-1.03,0.35l-13.51-30.66l3.96-44.19
	c2.62-0.39,5.06-1.84,6.57-4.25c2.76-4.39,1.43-10.19-2.96-12.95c-0.27-0.17-0.54-0.3-0.82-0.44l10.8-24.84
	c1.13,0.22,2.3,0.28,3.49,0.1L562.33,354.18z M542.31,178.94c-2.15,2.43-3.16,5.82-2.38,9.23c0.87,3.8,3.74,6.58,7.23,7.6
	l-10.74,24.69c-2.46-0.92-5.14-0.74-7.43,0.38l-55.89-93.46c2.67-2.07,4.07-5.55,3.27-9.06c-1.1-4.82-5.9-7.83-10.72-6.73
	c-0.58,0.13-1.13,0.33-1.66,0.56l-5.81-9.71c1.09-0.72,2.07-1.66,2.81-2.84c2.76-4.4,1.43-10.19-2.96-12.96
	c-2.55-1.6-5.57-1.79-8.2-0.83l-9.9-23.26c1.21-0.59,2.3-1.38,3.18-2.34L542.31,178.94z M425.29,50.87
	c-0.35,1.49-0.4,3.07-0.04,4.66c1.28,5.62,6.87,9.12,12.48,7.84c0.45-0.1,0.88-0.25,1.3-0.41l9.89,23.23
	c-1.27,0.62-2.39,1.55-3.3,2.73l-39.46-27.1c1.17-1.92,1.63-4.28,1.09-6.64c-1.1-4.82-5.9-7.83-10.72-6.73
	c-4.42,1.01-7.28,5.14-6.87,9.55L374,60.29l-54.77-23.38c1.85-4.2,0.43-9.21-3.57-11.72c-4.39-2.76-10.19-1.43-12.95,2.96
	c-0.05,0.08-0.08,0.16-0.13,0.24l-26.22-13.62c0.18-0.4,0.35-0.82,0.48-1.24L425.29,50.87z M257.44,14.72
	c1.01,2.24,2.77,3.99,4.89,5.04l-10.49,24.07l-90.97,20.8c-0.73-1.67-1.95-3.15-3.61-4.19c-4.4-2.76-10.19-1.43-12.95,2.96
	c-1.11,1.76-1.54,3.75-1.4,5.68l-25.64,3.24c-0.04-0.25-0.04-0.5-0.1-0.76c-0.04-0.16-0.11-0.3-0.15-0.46L257.44,14.72z
	 M15.15,216.59L99.93,81.53c0.87,0.81,1.88,1.45,2.96,1.92l-21.71,51.59c-1.22-0.25-2.49-0.26-3.77,0.03
	c-4.82,1.1-7.83,5.9-6.73,10.72c0.69,3.03,2.86,5.34,5.56,6.37l-25.51,29.22c-0.2-0.15-0.37-0.32-0.58-0.45
	c-4.4-2.76-10.19-1.43-12.95,2.96c-2.3,3.67-1.73,8.29,1.07,11.33l-21.75,22.23C16.09,217.14,15.64,216.84,15.15,216.59z
	 M9.72,236.18c0.87,0.06,1.75,0.02,2.64-0.14l20.46,56.39c-1.75,0.98-2.98,2.68-3.39,4.62c0.01,1,0.01,2,0.03,3
	c0.57,2.39,2.32,4.17,4.49,4.91l-4.84,35.52c-1.49,0.73-2.82,1.81-3.76,3.32c-2.47,3.93-1.65,8.96,1.68,11.96l-5.21,38.31
	c-0.47-0.04-0.93-0.08-1.41-0.06L9.72,236.18z M28.55,411.49c0.2-0.22,0.39-0.45,0.57-0.69l52.74,46.03
	c-1.6,2.05-2.32,4.75-1.7,7.48c1.1,4.81,5.9,7.83,10.72,6.73c1.76-0.4,3.26-1.3,4.43-2.51l10.33,8.95
	c-0.11,0.14-0.22,0.28-0.31,0.43c-2.76,4.39-1.43,10.19,2.96,12.95c2.55,1.6,5.56,1.8,8.18,0.84l15.29,38.5
	c-0.9,0.53-1.7,1.2-2.39,1.96L28.55,411.49z M147.27,541.23c0.07-0.36,0.13-0.72,0.17-1.09l94.25,4.67
	c0.02,0.38,0.04,0.75,0.13,1.14c0.32,1.4,1.08,2.57,2.07,3.47c2.53,0.44,5.07,0.83,7.61,1.2c0.72-0.34,1.34-0.81,1.88-1.35
	c0.73,1.59,1.88,3,3.48,3.99c3.58,2.25,8.07,1.75,11.11-0.88l28.25,23.75c-0.44,0.72-0.8,1.48-1.06,2.29L147.27,541.23z"/>
</svg>
